<svg
    xmlns="http://www.w3.org/2000/svg"
    viewBox="0 0 300 300"
    id="vector">
    <g
        id="group"
        transform="translate(0 300) scale(0.01 -0.01)">
        <path
            id="path"
            d="M 11067 22369 C 10734 22340 10470 22215 10307 22010 C 10205 21883 10139 21724 10093 21500 C 10077 21420 10076 21140 10073 17002 L 10070 12589 L 9952 12594 C 9702 12607 9633 12611 9580 12615 C 9550 12617 9491 12622 9450 12625 C 8823 12672 8200 12791 7786 12942 C 7212 13151 6886 13427 6810 13769 C 6764 13977 6795 14158 6917 14390 C 7165 14862 7763 15365 8695 15886 C 8860 15978 9327 16214 9475 16280 C 9503 16292 9558 16318 9598 16336 L 9670 16369 L 9670 16695 C 9670 16874 9666 17020 9662 17020 C 9651 17020 9305 16871 9140 16796 C 8871 16673 8826 16651 8550 16514 C 7960 16220 7522 15969 7055 15657 C 6058 14991 5386 14291 5125 13645 C 5073 13517 5023 13329 5009 13208 C 4995 13083 5002 12863 5024 12760 C 5154 12158 5676 11670 6570 11317 C 7105 11106 7788 10943 8550 10846 C 8775 10817 9215 10774 9375 10765 C 9436 10762 9505 10757 9530 10755 C 9555 10753 9652 10748 9745 10745 C 9839 10742 9950 10737 9992 10734 L 10069 10728 L 10073 8876 C 10076 7177 10078 7018 10093 6940 C 10123 6792 10150 6708 10199 6605 C 10336 6319 10568 6158 10950 6084 C 11022 6070 11134 6067 11673 6063 C 12023 6060 12310 6061 12310 6064 C 12310 6068 12293 6105 12271 6148 C 12187 6316 12115 6550 12085 6751 C 12072 6844 12070 7100 12070 8818 L 12070 10779 L 12123 10784 C 12151 10787 12204 10792 12240 10794 C 13527 10899 14829 11099 16145 11396 C 16517 11480 17108 11630 17513 11743 L 17670 11787 L 17670 9322 C 17670 7149 17668 6845 17655 6751 C 17625 6550 17553 6316 17469 6148 C 17447 6105 17430 6068 17430 6064 C 17430 6061 17735 6060 18108 6063 C 18685 6067 18798 6070 18870 6084 C 19018 6113 19102 6139 19206 6190 C 19494 6330 19648 6552 19727 6940 C 19743 7019 19744 7225 19749 9753 L 19755 12481 L 20035 12594 C 20456 12764 20682 12861 21075 13043 C 21209 13105 21716 13358 21870 13440 C 22853 13965 23711 14582 24225 15136 C 24680 15626 24941 16101 24991 16532 C 25005 16657 24998 16877 24976 16980 C 24846 17582 24324 18070 23430 18423 C 22895 18634 22212 18797 21450 18894 C 21224 18923 20784 18966 20625 18975 C 20565 18978 20497 18983 20475 18985 C 20453 18987 20353 18992 20253 18996 L 20070 19003 L 20070 18691 L 20070 18380 L 20118 18379 C 20144 18378 20181 18376 20200 18374 C 20219 18372 20314 18364 20410 18355 C 20601 18338 20602 18338 20775 18315 C 20941 18293 20954 18291 21045 18275 C 21089 18267 21143 18258 21165 18254 C 21187 18251 21246 18240 21295 18229 C 21962 18090 22401 17900 22684 17630 C 22819 17501 22897 17364 22931 17193 C 22951 17095 22952 17076 22942 16982 C 22897 16579 22566 16147 21943 15681 C 21823 15592 21646 15470 21505 15381 C 21420 15326 21140 15160 21134 15160 C 21132 15160 21113 15150 21092 15137 C 21003 15081 20507 14827 20315 14738 C 20026 14604 19886 14542 19830 14520 C 19811 14513 19791 14503 19786 14498 C 19750 14467 19750 14387 19747 17953 C 19744 21186 19743 21421 19727 21500 C 19696 21649 19670 21732 19621 21835 C 19484 22121 19258 22278 18870 22357 C 18790 22373 18543 22374 14970 22376 C 12872 22377 11115 22374 11067 22369 Z M 16386 20816 L 16430 20773 L 16430 20560 L 16430 20347 L 16386 20304 L 16343 20260 L 14930 20260 L 13517 20260 L 13474 20304 L 13430 20347 L 13430 20560 L 13430 20773 L 13474 20816 L 13517 20860 L 14930 20860 L 16343 20860 L 16386 20816 Z M 15699 19045 C 16326 18953 16936 18545 17318 17963 C 17445 17769 17554 17524 17610 17306 C 17672 17067 17670 17137 17670 15362 C 17670 14204 17667 13739 17659 13734 C 17653 13731 17625 13721 17597 13713 C 17568 13705 17525 13692 17500 13685 C 17475 13678 17367 13647 17260 13616 C 17153 13586 17036 13552 17000 13541 C 16941 13524 16646 13445 16410 13385 C 15727 13209 14648 12988 13925 12875 C 13382 12789 12671 12699 12350 12675 C 12303 12672 12227 12665 12180 12659 C 12133 12654 12089 12650 12083 12650 C 12073 12650 12070 13090 12070 14816 C 12070 17192 12067 17063 12130 17306 C 12271 17853 12656 18373 13167 18708 C 13424 18876 13743 19000 14030 19044 C 14175 19066 15548 19066 15699 19045 Z"
            fill="#ffffff"
            stroke-width="1"/>
    </g>
</svg>
