<?xml version="1.0" standalone="no"?>
<!DOCTYPE svg PUBLIC "-//W3C//DTD SVG 20010904//EN"
 "http://www.w3.org/TR/2001/REC-SVG-20010904/DTD/svg10.dtd">
<svg version="1.0" xmlns="http://www.w3.org/2000/svg"
 width="200.000000pt" height="200.000000pt" viewBox="0 0 200.000000 200.000000"
 preserveAspectRatio="xMidYMid meet">

<g transform="translate(0.000000,200.000000) scale(0.100000,-0.100000)"
fill="#909090" stroke="none">
<path d="M871 1780 c-69 -15 -132 -50 -186 -105 -62 -61 -94 -124 -108 -214
-25 -165 76 -342 229 -400 l47 -18 -79 -18 c-134 -29 -290 -112 -406 -214 -69
-62 -162 -190 -213 -295 -60 -122 -95 -261 -102 -403 l-6 -113 922 0 921 0 0
74 c0 442 -298 842 -704 946 -44 11 -93 20 -110 21 -27 0 -25 2 24 21 77 30
169 123 199 202 31 84 37 158 17 236 -30 117 -128 228 -236 265 -57 20 -152
27 -209 15z"/>
</g>
</svg>
